<svg width="260" height="262" viewBox="0 0 260 262" fill="none" xmlns="http://www.w3.org/2000/svg">
<path d="M44.6202 107.251C20.4143 123.377 -19.4668 138.529 14.6556 70.137C38.2449 22.857 80.949 6.12034 116.409 1.80034C132.242 -0.128664 147.053 -0.0612649 157.347 1.69264C135.066 3.54304 121.105 9.12354 113.781 13.0376C106.907 40.1213 93.015 75.011 44.6202 107.251Z" fill="url(#paint0_linear_16_25)"/>
<path d="M101.265 217.501C115.657 242.776 127.981 283.62 62.1446 244.795C16.6311 217.954 2.92428 174.183 1.09668 138.509C0.280682 122.579 1.38458 107.809 3.85468 97.6631C4.14098 120.019 8.73078 134.336 12.1226 141.916C38.6589 150.67 72.491 166.969 101.265 217.501Z" fill="url(#paint1_linear_16_25)"/>
<path d="M215.978 154.722C240.184 138.597 280.065 123.444 245.943 191.836C222.353 239.116 179.649 255.853 144.19 260.173C128.356 262.102 113.545 262.034 103.251 260.281C125.533 258.43 139.493 252.85 146.817 248.936C153.692 221.852 167.583 186.962 215.978 154.722Z" fill="url(#paint2_linear_16_25)"/>
<path d="M159.333 44.4717C144.942 19.1967 132.617 -21.6471 198.454 17.1785C243.967 44.019 257.674 87.79 259.502 123.464C260.318 139.394 259.214 154.164 256.744 164.31C256.457 141.954 251.868 127.637 248.476 120.057C221.939 111.303 188.107 95.004 159.333 44.4717Z" fill="url(#paint3_linear_16_25)"/>
<path d="M129.245 101.635C130.741 97.0289 137.259 97.0289 138.755 101.635L143.654 116.712C144.323 118.772 146.243 120.167 148.409 120.167H164.262C169.106 120.167 171.12 126.365 167.201 129.212L154.376 138.53C152.624 139.804 151.89 142.06 152.56 144.121L157.458 159.198C158.955 163.804 153.683 167.635 149.764 164.788L136.939 155.47C135.186 154.196 132.814 154.196 131.061 155.47L118.236 164.788C114.317 167.635 109.045 163.804 110.542 159.198L115.44 144.121C116.11 142.06 115.376 139.804 113.624 138.53L100.799 129.212C96.88 126.365 98.894 120.167 103.738 120.167H119.591C121.757 120.167 123.677 118.772 124.346 116.712L129.245 101.635Z" fill="url(#paint4_radial_16_25)"/>
<defs>
<linearGradient id="paint0_linear_16_25" x1="90.013" y1="95.394" x2="49.7379" y2="25.6636" gradientUnits="userSpaceOnUse">
<stop stop-color="#51242A"/>
<stop offset="1" stop-color="#AD102B"/>
</linearGradient>
<linearGradient id="paint1_linear_16_25" x1="92.614" y1="171.39" x2="20.2356" y2="206.686" gradientUnits="userSpaceOnUse">
<stop stop-color="#51242A"/>
<stop offset="1" stop-color="#AD102B"/>
</linearGradient>
<linearGradient id="paint2_linear_16_25" x1="170.585" y1="166.579" x2="210.86" y2="236.31" gradientUnits="userSpaceOnUse">
<stop stop-color="#51242A"/>
<stop offset="1" stop-color="#AD102B"/>
</linearGradient>
<linearGradient id="paint3_linear_16_25" x1="167.984" y1="90.583" x2="240.363" y2="55.2866" gradientUnits="userSpaceOnUse">
<stop stop-color="#51242A"/>
<stop offset="1" stop-color="#AD102B"/>
</linearGradient>
<radialGradient id="paint4_radial_16_25" cx="0" cy="0" r="1" gradientUnits="userSpaceOnUse" gradientTransform="translate(134 135) rotate(90) scale(48 48)">
<stop stop-color="#51242A"/>
<stop offset="1" stop-color="#A53A47"/>
</radialGradient>
</defs>
</svg>
