<svg width="104" height="104" viewBox="0 0 104 104" fill="none" xmlns="http://www.w3.org/2000/svg">
<path d="M17.5876 42.5509C7.8655 48.9706 -8.15245 55.0026 5.55256 27.7759C15.027 8.95388 32.1788 2.29104 46.4211 0.571262C52.7803 -0.196668 58.729 -0.169837 62.8635 0.528386C53.9145 1.26503 48.3072 3.48661 45.3655 5.0448C42.6047 15.8268 37.025 29.7163 17.5876 42.5509Z" fill="white"/>
<path d="M40.3386 86.4412C46.119 96.5031 51.0689 112.763 24.6262 97.3069C6.34599 86.6215 0.840754 69.1964 0.106712 54.9947C-0.221029 48.653 0.222344 42.7731 1.21444 38.734C1.32943 47.6339 3.17289 53.3334 4.53518 56.351C15.1933 59.8359 28.7817 66.3245 40.3386 86.4412Z" fill="white"/>
<path d="M86.4122 61.449C96.1344 55.0297 112.152 48.9973 98.4474 76.224C88.9727 95.0461 71.8209 101.709 57.5791 103.429C51.2195 104.197 45.2707 104.17 41.1362 103.472C50.0856 102.735 55.6926 100.514 58.6342 98.9554C61.3955 88.1733 66.9747 74.2837 86.4122 61.449Z" fill="white"/>
<path d="M63.6611 17.5586C57.8811 7.49671 52.9309 -8.76311 79.3738 6.69327C97.6538 17.3784 103.159 34.8035 103.893 49.0053C104.221 55.347 103.778 61.2268 102.786 65.2659C102.67 56.3661 100.827 50.6665 99.4648 47.6489C88.8064 44.164 75.218 37.6754 63.6611 17.5586Z" fill="white"/>
</svg>
